<?xml version="1.0" encoding="UTF-8"?>
<svg version="1.1" xmlns="http://www.w3.org/2000/svg" width="1024" height="1024">
<path d="M0 0 C337.92 0 675.84 0 1024 0 C1024 337.92 1024 675.84 1024 1024 C686.08 1024 348.16 1024 0 1024 C0 686.08 0 348.16 0 0 Z " fill="#FEFEFE" transform="translate(0,0)"/>
<path d="M0 0 C13.06999366 9.33570976 21.20459823 23.22877474 24.59765625 38.85546875 C26.01871559 55.58476733 23.54800948 69.07287099 13.59765625 82.85546875 C10.55793704 86.37960923 7.30392046 89.64283802 3.98046875 92.8984375 C3.08270721 93.79291092 2.18494568 94.68738434 1.25997925 95.60896301 C-1.096392 97.95236546 -3.46138514 100.2865726 -5.83074951 102.61682129 C-7.77554202 104.53412527 -9.71074251 106.46096141 -11.64568901 108.38819408 C-13.95426763 110.68684473 -16.26796611 112.98031194 -18.58203125 115.2734375 C-19.45173553 116.13575485 -20.32143982 116.9980722 -21.21749878 117.88652039 C-22.01568024 118.67186661 -22.81386169 119.45721283 -23.63623047 120.26635742 C-24.34125702 120.96153976 -25.04628357 121.65672211 -25.77267456 122.37297058 C-27.40234375 123.85546875 -27.40234375 123.85546875 -28.40234375 123.85546875 C-28.428125 122.75589844 -28.45390625 121.65632812 -28.48046875 120.5234375 C-28.84630066 109.86360285 -30.58019793 101.45822271 -35.40234375 91.85546875 C-34.56985107 91.04916016 -33.7373584 90.24285156 -32.87963867 89.41210938 C-29.77498908 86.39840994 -26.68728552 83.36782345 -23.60424805 80.33203125 C-22.27120051 79.02402581 -20.9336865 77.72055545 -19.59155273 76.421875 C-17.65568232 74.54710707 -15.73681645 72.6562561 -13.8203125 70.76171875 C-13.22333054 70.19054321 -12.62634857 69.61936768 -12.01127625 69.03088379 C-6.38911544 63.41251208 -3.9749272 57.49481553 -3.96484375 49.41796875 C-4.19047971 40.93209476 -6.97463805 34.60142737 -12.6953125 28.359375 C-19.04755413 22.76300651 -26.64052694 21.42000588 -34.87109375 21.6015625 C-52.25000604 23.34481759 -69.52011763 48.89310702 -81.40234375 60.85546875 C-84.96099408 64.43787789 -88.52137827 68.01853167 -92.08596802 71.59503174 C-93.49551123 73.01099132 -94.90196729 74.43002195 -96.30834961 75.84912109 C-97.1669458 76.71102051 -98.02554199 77.57291992 -98.91015625 78.4609375 C-99.6592627 79.21528076 -100.40836914 79.96962402 -101.18017578 80.74682617 C-103.48518489 82.93407773 -105.91208465 84.88424312 -108.40234375 86.85546875 C-113.00498894 91.9581544 -113.93766392 96.57757922 -113.7734375 103.33984375 C-113.38228522 105.99144449 -112.91005995 107.64191089 -111.40234375 109.85546875 C-109.55385891 111.09039673 -109.55385891 111.09039673 -107.33984375 111.91796875 C-106.54191406 112.25054688 -105.74398437 112.583125 -104.921875 112.92578125 C-102.47881174 113.82725266 -100.02656506 114.56488136 -97.52734375 115.29296875 C-94.58374456 116.25875697 -93.52024445 116.73042255 -91.33984375 119.04296875 C-89.55407564 124.40027307 -89.58378073 128.18685952 -92.02734375 133.16796875 C-95.65707187 137.27529267 -98.6002204 138.6379711 -104.02734375 139.29296875 C-115.29075232 138.79763721 -125.62721569 133.12893679 -133.21484375 125.04296875 C-141.48160242 115.03079236 -142.23970015 103.54206587 -141.62011719 91.06591797 C-140.3637613 78.31362399 -130.56750901 68.66562683 -121.7734375 60.25390625 C-119.77086285 58.22823766 -117.92662157 56.16387687 -116.07421875 54.00390625 C-112.67888199 50.0918189 -109.03778328 46.59344049 -105.21484375 43.10546875 C-99.51138112 37.8479049 -93.98088701 32.45127376 -88.55859375 26.90625 C-87.33619482 25.66177091 -86.11378259 24.41730488 -84.89135742 23.17285156 C-83.07152037 21.31893292 -81.25656626 19.46135987 -79.45596313 17.58874512 C-58.32529058 -4.38037807 -28.93541315 -17.2589725 0 0 Z " fill="#5ECE98" transform="translate(282.40234375,403.14453125)"/>
<path d="M0 0 C10.29931567 5.56097236 17.44172994 13.68943299 21.6315918 24.57543945 C22.9846123 29.13949871 23.04041396 33.52672152 22.9453125 38.2578125 C22.93322754 39.22348145 22.92114258 40.18915039 22.90869141 41.18408203 C22.43944982 58.01705764 13.92917412 67.14444735 2.47265625 78.62890625 C1.50332577 79.60468575 0.53413614 80.58060518 -0.43492126 81.55665588 C-2.459518 83.5931578 -4.4881336 85.62555625 -6.51928711 87.65551758 C-9.08867769 90.2247058 -11.64406432 92.80733984 -14.19603825 95.39381313 C-16.19255602 97.41285537 -18.19839124 99.42245148 -20.20672417 101.42973518 C-21.60222998 102.82866936 -22.98868017 104.23661902 -24.37477112 105.6448822 C-38.93621346 120.10457372 -52.99711504 127.63959133 -73.5612793 127.70532227 C-87.52126311 127.50338333 -98.35940441 122.7990681 -108.69921875 113.36328125 C-119.76028117 101.96383068 -123.97730643 88.02140821 -123.92041016 72.54711914 C-123.50170214 52.72379127 -110.5388051 38.49414893 -97.4296875 24.9453125 C-94.5546875 22.3203125 -94.5546875 22.3203125 -92.5546875 22.3203125 C-92.5546875 21.6603125 -92.5546875 21.0003125 -92.5546875 20.3203125 C-91.8946875 20.3203125 -91.2346875 20.3203125 -90.5546875 20.3203125 C-90.46832031 20.97515625 -90.38195312 21.63 -90.29296875 22.3046875 C-89.15922681 29.66880944 -87.53269563 39.63997845 -81.83203125 44.9140625 C-80.5546875 46.3203125 -80.5546875 46.3203125 -80.56640625 48.21484375 C-81.94814171 51.15854104 -83.96730287 52.82577977 -86.3671875 55.0078125 C-92.32133968 60.82567508 -95.63697643 65.82483864 -95.9921875 74.2578125 C-95.61548896 82.08342098 -93.76608433 89.06248186 -88.3046875 94.8515625 C-82.56683366 99.66726126 -75.98055227 101.79940055 -68.5546875 101.3203125 C-62.56674124 100.48131043 -58.75234772 97.87280283 -54.375 93.7890625 C-53.86694321 93.31530685 -53.35888641 92.84155121 -52.83543396 92.35343933 C-45.75079686 85.69584044 -38.85297978 78.8415482 -31.97045898 71.97631836 C-29.60389049 69.61957067 -27.22684629 67.27371435 -24.84960938 64.92773438 C-23.32486521 63.40951232 -21.8007538 61.89065448 -20.27734375 60.37109375 C-19.22414696 59.33641716 -19.22414696 59.33641716 -18.14967346 58.28083801 C-11.88296636 51.98570506 -6.43657803 45.6117534 -6.3671875 36.3828125 C-6.35300781 35.52816406 -6.33882813 34.67351563 -6.32421875 33.79296875 C-6.57442567 31.1085453 -7.08189033 29.56826608 -8.5546875 27.3203125 C-12.07720155 25.0410387 -15.35419297 23.4018696 -19.2421875 21.8203125 C-23.14921349 20.05109318 -25.62592461 18.17783829 -27.5546875 14.3203125 C-28.10537312 8.59318202 -27.12025725 5.80274305 -23.5546875 1.3203125 C-17.63811804 -5.54290807 -7.37126363 -3.30435956 0 0 Z " fill="#A0CE6F" transform="translate(221.5546875,480.6796875)"/>
<path d="M0 0 C1.39745367 1.03278966 2.77408766 2.09453746 4.125 3.1875 C4.73859375 3.66574219 5.3521875 4.14398438 5.984375 4.63671875 C12.73811818 10.5686569 18.56908446 21.30488226 19.30200195 30.37890625 C19.71093868 46.2019879 18.69994849 59.45377468 7.8125 71.8125 C-5.53677477 83.60953352 -18.44352984 86.25207746 -35.875 85.1875 C-46.01628776 83.74398739 -56.30881737 78.88078649 -63.3125 71.3046875 C-72.99626176 58.18319031 -74.11514065 43.91211963 -72.875 28.1875 C-72.06134115 24.13240021 -70.85577495 20.80484967 -68.875 17.1875 C-68.33166016 16.12595703 -68.33166016 16.12595703 -67.77734375 15.04296875 C-61.56933787 4.03691086 -52.02708998 -2.38598596 -40.04296875 -5.953125 C-26.59909135 -9.08992336 -11.73105062 -7.3540872 0 0 Z " fill="#21CCB9" transform="translate(606.875,482.8125)"/>
<path d="M0 0 C6.49412434 5.23574731 11.51418156 11.63325538 13 20 C13 22.64 13 25.28 13 28 C5.74 28 -1.52 28 -9 28 C-9.99 25.36 -10.98 22.72 -12 20 C-17.19039815 14.57367467 -22.48005156 12.99854545 -29.8125 12.5625 C-36.93822571 12.72568456 -42.63362192 15.63362192 -47.625 20.625 C-49.60883813 25.49442086 -49.87233639 29.82002017 -49 35 C-45.39571792 41.19485982 -39.73104073 43.90936437 -33.04589844 45.86352539 C-29.66248017 46.71141878 -26.27075261 47.51551609 -22.875 48.3125 C-7.67069887 52.09803157 5.29203623 55.95137403 14.14453125 69.7890625 C17.85357398 77.47812826 17.28562805 89.48042695 14.5625 97.375 C8.30846651 110.18394832 -2.72730749 116.42170363 -15.69140625 120.9375 C-30.25590898 124.48621133 -47.0762436 122.43004856 -59.9375 114.8125 C-68.10863104 109.09757204 -74.76946632 101.96402874 -77 92 C-77 89.36 -77 86.72 -77 84 C-69.08 84 -61.16 84 -53 84 C-51 90 -51 90 -49 96 C-47.17662986 97.15429646 -47.17662986 97.15429646 -45 98 C-44.34902344 98.28101563 -43.69804687 98.56203125 -43.02734375 98.8515625 C-34.60043391 101.9703067 -26.37118742 102.14808981 -17.9375 98.91015625 C-12.69044445 96.44530959 -10.05055943 93.39620903 -8 88 C-7.44220579 84.17512543 -7.82070357 82.37353423 -9.5 78.875 C-14.5806564 73.03224514 -21.74633249 71.30354544 -29.0625 69.5625 C-61.27793285 61.42204116 -61.27793285 61.42204116 -70 48 C-72.73280555 42.41121131 -73.5228512 37.30204466 -73.4375 31.125 C-73.42775146 30.33416016 -73.41800293 29.54332031 -73.40795898 28.72851562 C-73.09272439 18.3247054 -69.69582973 11.78421072 -62.4921875 4.26171875 C-45.58940877 -11.07795035 -19.001805 -12.3479743 0 0 Z " fill="#1CC6C4" transform="translate(415,447)"/>
<path d="M0 0 C7.26 0 14.52 0 22 0 C22.33 14.85 22.66 29.7 23 45 C25.97 43.02 28.94 41.04 32 39 C40.3188058 34.62168116 50.44271809 34.58713172 59.45703125 36.87890625 C68.33863989 40.26397219 74.09471362 45.24410461 78.17578125 53.8125 C80.18777308 59.15238354 81.24966893 63.95859634 81.22705078 69.66967773 C81.22689972 70.95047714 81.22674866 72.23127655 81.22659302 73.55088806 C81.21638289 74.92845825 81.20595096 76.30602681 81.1953125 77.68359375 C81.19157721 79.10848288 81.18873267 80.53337459 81.18673706 81.95826721 C81.17914121 85.68845855 81.15952809 89.4184914 81.1373291 93.14862061 C81.11678291 96.9629909 81.10771667 100.77738707 81.09765625 104.59179688 C81.07627786 112.06127815 81.04112933 119.53059658 81 127 C74.07 127 67.14 127 60 127 C59.970271 124.66240601 59.970271 124.66240601 59.93994141 122.27758789 C59.86358422 116.46834791 59.77491371 110.65934859 59.68261719 104.8503418 C59.64445157 102.34127572 59.60957754 99.83215725 59.578125 97.32299805 C59.53220433 93.70602759 59.47425441 90.08941401 59.4140625 86.47265625 C59.40251129 85.35979752 59.39096008 84.24693878 59.37905884 83.10035706 C59.14722328 70.06594507 59.14722328 70.06594507 53 59 C47.22629178 55.83489489 41.32147869 55.24668421 35 57 C28.88921812 60.2283376 25.20262407 64.47691225 23 71 C22.67724213 73.76469538 22.67724213 73.76469538 22.68115234 76.70825195 C22.66128265 77.82903641 22.64141296 78.94982086 22.62094116 80.10456848 C22.60938995 81.3036937 22.59783875 82.50281891 22.5859375 83.73828125 C22.56657135 84.97418503 22.5472052 86.21008881 22.5272522 87.48344421 C22.47767445 90.75651967 22.43637171 94.029561 22.39910889 97.30279541 C22.35897981 100.64793457 22.30776548 103.99288373 22.2578125 107.33789062 C22.16183179 113.89182779 22.07777375 120.44582251 22 127 C14.74 127 7.48 127 0 127 C0 85.09 0 43.18 0 0 Z " fill="#1DC8C2" transform="translate(442,440)"/>
<path d="M0 0 C7.59 0 15.18 0 23 0 C18.70308599 12.33373465 14.1773379 24.55623458 9.5 36.75 C8.08364726 40.45014319 6.66864749 44.1508029 5.25390625 47.8515625 C4.898694 48.78020111 4.54348175 49.70883972 4.17750549 50.6656189 C1.7942825 56.90221398 -0.5655414 63.14723487 -2.91015625 69.3984375 C-3.53253413 71.05501976 -4.15492965 72.71159541 -4.77734375 74.36816406 C-5.65482289 76.70412707 -6.53101895 79.04051823 -7.40234375 81.37878418 C-10.33348199 89.24350843 -13.36535525 97.04882458 -16.6875 104.7578125 C-16.967715 105.41621124 -17.24792999 106.07460999 -17.53663635 106.75296021 C-20.97052719 114.58469468 -25.30078104 119.76389852 -33.10546875 123.30859375 C-36.56707552 124.57190179 -39.64071262 125.12399491 -43.328125 125.09765625 C-44.0490332 125.09515869 -44.76994141 125.09266113 -45.51269531 125.09008789 C-46.41600586 125.08098389 -47.31931641 125.07187988 -48.25 125.0625 C-51.1375 125.041875 -54.025 125.02125 -57 125 C-57 118.4 -57 111.8 -57 105 C-53.968125 105.12375 -53.968125 105.12375 -50.875 105.25 C-46.85835918 105.22386134 -44.26180484 105.1028519 -40.5 103.625 C-36.65634067 99.58915771 -33.10163384 94.81364355 -32.94775391 89.03955078 C-33.41015302 82.59029995 -35.70944627 77.13254397 -38.25 71.25 C-39.23386351 68.90499551 -40.214489 66.5588283 -41.19140625 64.2109375 C-41.46982864 63.54430084 -41.74825104 62.87766418 -42.03511047 62.19082642 C-46.40005633 51.69665248 -50.55070381 41.11493111 -54.73352051 30.54724121 C-56.18299814 26.88637013 -57.63577376 23.22681996 -59.08886719 19.56738281 C-59.99042731 17.29239416 -60.89180257 15.01733223 -61.79296875 12.7421875 C-62.21746811 11.67360504 -62.64196747 10.60502258 -63.07933044 9.50405884 C-63.46460403 8.5293161 -63.84987762 7.55457336 -64.24682617 6.55029297 C-64.58671066 5.6924118 -64.92659515 4.83453064 -65.27677917 3.95065308 C-66 2 -66 2 -66 1 C-58.41 1 -50.82 1 -43 1 C-35.15407374 20.14406007 -28.09734357 39.56907709 -21 59 C-18.12196189 52.01683347 -15.5512537 44.9705869 -13.14453125 37.8125 C-12.79742599 36.78817871 -12.45032074 35.76385742 -12.09269714 34.70849609 C-10.99671624 31.47319741 -9.90434789 28.23669559 -8.8125 25 C-7.70947767 21.73490013 -6.60566199 18.47007437 -5.50016785 15.20581055 C-4.81528116 13.18305903 -4.13189295 11.15979941 -3.45014954 9.13598633 C-3.1428038 8.22743896 -2.83545807 7.3188916 -2.51879883 6.3828125 C-2.24884598 5.58246582 -1.97889313 4.78211914 -1.70075989 3.95751953 C-1 2 -1 2 0 0 Z " fill="#9CCC71" transform="translate(885,477)"/>
<path d="M0 0 C0.93199219 0.00515625 1.86398437 0.0103125 2.82421875 0.015625 C6.90409315 0.06245283 10.25760703 0.25190176 14.25 1.25 C14.25 6.53 14.25 11.81 14.25 17.25 C6.5625 17.4375 6.5625 17.4375 4.16918945 17.45776367 C0.33371667 17.62701136 -1.48051798 18.06278092 -4.71875 20.3125 C-7.20411928 23.90672635 -7.52416531 26.834138 -7.5625 31.0625 C-7.6553125 34.6203125 -7.6553125 34.6203125 -7.75 38.25 C-1.15 38.25 5.45 38.25 12.25 38.25 C12.25 44.19 12.25 50.13 12.25 56.25 C5.65 56.25 -0.95 56.25 -7.75 56.25 C-7.75 79.68 -7.75 103.11 -7.75 127.25 C-15.01 127.25 -22.27 127.25 -29.75 127.25 C-29.75 103.82 -29.75 80.39 -29.75 56.25 C-33.71 56.25 -37.67 56.25 -41.75 56.25 C-41.75 50.31 -41.75 44.37 -41.75 38.25 C-37.79 38.25 -33.83 38.25 -29.75 38.25 C-29.79640625 36.91066406 -29.8428125 35.57132812 -29.890625 34.19140625 C-29.92817361 32.39846 -29.96457043 30.60548937 -30 28.8125 C-30.03351562 27.93400391 -30.06703125 27.05550781 -30.1015625 26.15039062 C-30.20613184 19.06581816 -28.93469266 12.80636481 -24.08691406 7.39282227 C-17.07337923 0.68464595 -9.28558916 -0.20895841 0 0 Z " fill="#49CD9E" transform="translate(801.75,439.75)"/>
<path d="M0 0 C7.26 0 14.52 0 22 0 C22 8.25 22 16.5 22 25 C28.6 25 35.2 25 42 25 C42 30.94 42 36.88 42 43 C35.4 43 28.8 43 22 43 C22.07402069 49.46021925 22.15687217 55.91905939 22.26245117 62.37866211 C22.29568055 64.57552927 22.32371866 66.7724814 22.34643555 68.96948242 C22.38001754 72.12976243 22.43233634 75.28926521 22.48828125 78.44921875 C22.49467117 79.42960617 22.5010611 80.40999359 22.50764465 81.42008972 C22.64679908 88.20183167 22.64679908 88.20183167 26 94 C29.04112998 95.52056499 32.28197797 95.3741161 35.625 95.5625 C38.05875 95.706875 40.4925 95.85125 43 96 C43 101.94 43 107.88 43 114 C34.21593514 116.92802162 21.30849676 116.02561045 13 112 C6.71693165 108.38147896 2.61692697 104.15889234 0.40943909 97.11578369 C-0.07263442 94.62466033 -0.11968577 92.31053535 -0.11352539 89.77246094 C-0.11344986 88.73168396 -0.11337433 87.69090698 -0.11329651 86.61859131 C-0.10813522 85.50179993 -0.10297394 84.38500854 -0.09765625 83.234375 C-0.0962413 82.08584045 -0.09482635 80.93730591 -0.09336853 79.75396729 C-0.08777143 76.08595169 -0.07521944 72.41799715 -0.0625 68.75 C-0.05748463 66.26302171 -0.05292178 63.77604247 -0.04882812 61.2890625 C-0.03780295 55.19268481 -0.02054027 49.09635276 0 43 C-4.29 43 -8.58 43 -13 43 C-13 37.06 -13 31.12 -13 25 C-8.71 25 -4.42 25 0 25 C0 16.75 0 8.5 0 0 Z " fill="#38CEAA" transform="translate(709,453)"/>
<path d="M0 0 C0 6.93 0 13.86 0 21 C-2.413125 21.3403125 -2.413125 21.3403125 -4.875 21.6875 C-12.11676955 23.02200135 -19.06724898 25.40884913 -24.0625 31.0625 C-26.80325984 35.21784556 -27.12331758 38.39905489 -27.20532227 43.31933594 C-27.22526749 44.38013367 -27.24521271 45.4409314 -27.26576233 46.53387451 C-27.29083107 48.24187225 -27.29083107 48.24187225 -27.31640625 49.984375 C-27.33718735 51.15510559 -27.35796844 52.32583618 -27.37937927 53.53204346 C-27.44475628 57.27130269 -27.50370491 61.01063205 -27.5625 64.75 C-27.60569647 67.2851635 -27.64931112 69.82031991 -27.69335938 72.35546875 C-27.80042563 78.57024065 -27.90172671 84.78508309 -28 91 C-35.26 91 -42.52 91 -50 91 C-50 61.3 -50 31.6 -50 1 C-42.74 1 -35.48 1 -28 1 C-27.67 3.97 -27.34 6.94 -27 10 C-26.43152344 9.52949219 -25.86304688 9.05898438 -25.27734375 8.57421875 C-16.7503663 1.69854244 -10.96013017 -0.40593075 0 0 Z " fill="#2ACEB2" transform="translate(687,476)"/>
<path d="M0 0 C4.21947905 2.93502881 6.51522657 6.34020818 8.74609375 10.91015625 C9.42671875 12.30234375 9.42671875 12.30234375 10.12109375 13.72265625 C11.92574467 22.92637593 11.20820352 31.57651007 6.74609375 39.91015625 C3.20131943 44.70964029 -1.2791678 48.68904182 -7.25390625 49.91015625 C-15.2182483 50.73547667 -22.51027278 50.57274658 -29.25390625 45.91015625 C-35.96796424 40.21894303 -38.58116071 33.78827038 -39.56640625 25.1796875 C-39.9484601 16.71480698 -37.85798004 9.40079379 -32.12890625 3.03515625 C-22.23872636 -5.90404481 -11.29909497 -6.0885569 0 0 Z " fill="#FBFCFC" transform="translate(594.25390625,499.08984375)"/>
<path d="M0 0 C0 0.33 0 0.66 0 1 C-1.25554687 0.97679687 -2.51109375 0.95359375 -3.8046875 0.9296875 C-20.6773914 0.66958908 -20.6773914 0.66958908 -36 7 C-37.6396875 7.63035156 -37.6396875 7.63035156 -39.3125 8.2734375 C-43.40528409 9.98763884 -46.18974976 12.59665525 -49.3125 15.6875 C-54.75898487 21 -54.75898487 21 -57 21 C-57.25136719 21.57878906 -57.50273437 22.15757812 -57.76171875 22.75390625 C-59.15592914 25.28283677 -60.73790358 26.9343046 -62.8125 28.9375 C-63.47894531 29.58589844 -64.14539063 30.23429687 -64.83203125 30.90234375 C-65.54746094 31.59457031 -66.26289063 32.28679687 -67 33 C-69.73152971 35.71794001 -72.44707091 38.45123248 -75.15625 41.19140625 C-76.27080117 42.31513607 -77.38538495 43.43883355 -78.5 44.5625 C-79.05558594 45.12646484 -79.61117187 45.69042969 -80.18359375 46.27148438 C-83.31151703 49.4178072 -86.52479203 52.23401815 -90 55 C-91.11811528 56.1976143 -92.20344229 57.42687366 -93.25 58.6875 C-96.6862332 62.72166805 -100.38287952 66.42334381 -104.1796875 70.1171875 C-106.06383898 71.87753339 -106.06383898 71.87753339 -107 74 C-107.66 74 -108.32 74 -109 74 C-109 74.66 -109 75.32 -109 76 C-109.66 76 -110.32 76 -111 76 C-111 76.66 -111 77.32 -111 78 C-111.66 78 -112.32 78 -113 78 C-113.3403125 78.99 -113.3403125 78.99 -113.6875 80 C-114.80528796 82.5549439 -115.88650507 84.22429898 -117.5 86.4375 C-121.17296683 92.1208185 -122.92074004 100.58044779 -121.53125 107.25 C-121.3559375 107.8275 -121.180625 108.405 -121 109 C-121.04125 109.9075 -121.0825 110.815 -121.125 111.75 C-120.98515708 115.38591598 -120.04667351 117.94405773 -118.65625 121.265625 C-118 123 -118 123 -118 125 C-117.01 125.33 -116.02 125.66 -115 126 C-113.8125 128.5625 -113.8125 128.5625 -113 131 C-112.34 131 -111.68 131 -111 131 C-108.875 132.875 -108.875 132.875 -107 135 C-107 135.66 -107 136.32 -107 137 C-106.030625 137.268125 -105.06125 137.53625 -104.0625 137.8125 C-101.941008 138.40156619 -99.90122343 139.03836331 -97.84765625 139.8359375 C-92.31454289 141.95582979 -87.77982706 142.62965049 -82 141 C-78.86361943 139.23222186 -76.53270033 137.53270033 -74 135 C-74.29459009 138.53508103 -74.74881413 139.76203444 -77.375 142.25 C-81.78543722 145.19029148 -85.83178595 145.58805 -91 145 C-102.5872754 142.24487338 -112.10063672 136.85623326 -119 127 C-124.8584099 116.35158323 -125.98568342 103.30461057 -123.1640625 91.50390625 C-119.245096 81.39086854 -112.10120146 73.79245357 -104.37109375 66.3984375 C-102.3685191 64.37276891 -100.52427782 62.30840812 -98.671875 60.1484375 C-95.27653824 56.23635015 -91.63543953 52.73797174 -87.8125 49.25 C-82.10903737 43.99243615 -76.57854326 38.59580501 -71.15625 33.05078125 C-69.93385107 31.80630216 -68.71143884 30.56183613 -67.48901367 29.31738281 C-65.66917662 27.46346417 -63.85422251 25.60589112 -62.05361938 23.73327637 C-45.17094825 6.18071239 -25.28950332 -6.2840584 0 0 Z " fill="#0EC5B7" transform="translate(265,397)"/>
<path d="M0 0 C0.66 0 1.32 0 2 0 C2.08636719 0.65484375 2.17273438 1.3096875 2.26171875 1.984375 C3.39546069 9.34849694 5.02199187 19.31966595 10.72265625 24.59375 C12 26 12 26 11.98828125 27.89453125 C10.60654579 30.83822854 8.58738463 32.50546727 6.1875 34.6875 C0.23334782 40.50536258 -3.08228893 45.50452614 -3.4375 53.9375 C-3.05777832 61.82591165 -1.18239706 68.69559308 4.3046875 74.52734375 C6.99297301 76.86255951 9.81884149 78.40942075 13 80 C10 81 10 81 7 81 C7 80.34 7 79.68 7 79 C6.34 79 5.68 79 5 79 C5 78.34 5 77.68 5 77 C4.40574219 76.7525 3.81148437 76.505 3.19921875 76.25 C-0.85711536 73.94444598 -2.97627925 70.11009539 -5 66 C-5.81259065 62.64478701 -5.98390703 59.44389471 -6 56 C-6.01417969 55.13117187 -6.02835938 54.26234375 -6.04296875 53.3671875 C-6.05960181 51.24480851 -6.03422852 49.12216814 -6 47 C-5.34 47 -4.68 47 -4 47 C-3.67 44.69 -3.34 42.38 -3 40 C-2.34 40 -1.68 40 -1 40 C-0.7525 39.21625 -0.505 38.4325 -0.25 37.625 C1.20140766 34.57704392 1.99550707 34.27463336 5 33 C6.91666667 31.91666667 6.91666667 31.91666667 8 30 C7.76522801 26.35458155 7.76522801 26.35458155 7 23 C6.34 23 5.68 23 5 23 C4.505 20.03 4.505 20.03 4 17 C3.34 17 2.68 17 2 17 C1.30710631 13.27569643 0.88855404 9.78916254 1 6 C-0.65 6.33 -2.3 6.66 -4 7 C-4.33 7.99 -4.66 8.98 -5 10 C-7.16481195 12.29215383 -9.43064382 14.45664182 -11.7109375 16.6328125 C-20.65721978 25.34469437 -25.70719889 34.16311793 -27.60546875 46.6171875 C-28 49 -28 49 -29 52 C-28.835 52.66 -28.67 53.32 -28.5 54 C-28 56 -28 56 -29 59 C-28.39351421 60.68949614 -27.72159424 62.35636866 -27 64 C-26.24976446 66.55080083 -26 68.30020872 -26 71 C-25.67958603 73.60280568 -25.67958603 73.60280568 -25 76 C-24.34 76.33 -23.68 76.66 -23 77 C-22.31653318 78.65984798 -21.65411685 80.32836805 -21 82 C-18.81932471 86.74831589 -18.81932471 86.74831589 -15 90 C-15 90.66 -15 91.32 -15 92 C-14.34 92 -13.68 92 -13 92 C-8.34090909 96.31818182 -8.34090909 96.31818182 -7 99 C-17.04909399 95.4880329 -22.5436902 86.18338273 -27 77 C-32.23499323 65.17107725 -33.1872932 50.867498 -29.375 38.4375 C-23.70724749 24.30720668 -13.16967235 12.19839649 -2 2 C-1.34 2 -0.68 2 0 2 C0 1.34 0 0.68 0 0 Z " fill="#13C6B7" transform="translate(129,501)"/>
<path d="M0 0 C3.44363641 3.07094848 5.2286863 6.06023884 7.125 10.25 C7.62257813 11.32765625 8.12015625 12.4053125 8.6328125 13.515625 C13.6201083 26.22610459 14.25399636 42.05577774 9.35256958 54.90715027 C5.16794648 64.47590785 -1.22841542 71.80504726 -8.6171875 79.04296875 C-9.51494904 79.93744217 -10.41271057 80.83191559 -11.337677 81.75349426 C-13.69404825 84.09689671 -16.05904139 86.43110385 -18.42840576 88.76135254 C-20.37319827 90.67865652 -22.30839876 92.60549266 -24.24334526 94.53272533 C-26.55192388 96.83137598 -28.86562236 99.12484319 -31.1796875 101.41796875 C-32.04939178 102.2802861 -32.91909607 103.14260345 -33.81515503 104.03105164 C-34.61333649 104.81639786 -35.41151794 105.60174408 -36.23388672 106.41088867 C-36.93891327 107.10607101 -37.64393982 107.80125336 -38.37033081 108.51750183 C-40 110 -40 110 -41 110 C-41.03867188 108.35064453 -41.03867188 108.35064453 -41.078125 106.66796875 C-41.44395691 96.0081341 -43.17785418 87.60275396 -48 78 C-47.16750732 77.19369141 -46.33501465 76.38738281 -45.47729492 75.55664062 C-42.37264533 72.54294119 -39.28494177 69.5123547 -36.2019043 66.4765625 C-34.86885676 65.16855706 -33.53134275 63.8650867 -32.18920898 62.56640625 C-30.25333857 60.69163832 -28.3344727 58.80078735 -26.41796875 56.90625 C-25.82098679 56.33507446 -25.22400482 55.76389893 -24.6089325 55.17541504 C-19.70295642 50.27274539 -17.33475722 45.55480282 -16.671875 38.515625 C-16.69765625 37.43796875 -16.7234375 36.3603125 -16.75 35.25 C-16.76546875 34.16203125 -16.7809375 33.0740625 -16.796875 31.953125 C-16.88848934 29.09223456 -16.88848934 29.09223456 -17.640625 26.796875 C-17.75921875 26.20390625 -17.8778125 25.6109375 -18 25 C-17.34 24.01 -16.68 23.02 -16 22 C-16 22.99 -16 23.98 -16 25 C-15.34 25.33 -14.68 25.66 -14 26 C-13.8905955 28.64698118 -13.81204956 31.28931357 -13.75 33.9375 C-13.69972656 35.04061523 -13.69972656 35.04061523 -13.6484375 36.16601562 C-13.50581288 44.33127533 -16.11140135 50.28590653 -21.71484375 56.203125 C-23.10968445 57.56522296 -24.51750641 58.91414459 -25.9375 60.25 C-26.64068359 60.930625 -27.34386719 61.61125 -28.06835938 62.3125 C-29.42864537 63.62816555 -30.79329219 64.93934153 -32.1628418 66.24536133 C-35.53790263 69.46882474 -38.86390474 72.68994011 -41.8125 76.3125 C-42.534375 77.199375 -43.25625 78.08625 -44 79 C-43.54625 80.093125 -43.0925 81.18625 -42.625 82.3125 C-40.03827665 89.21451538 -38.60091153 96.61686325 -39 104 C-36.59133733 102.36555033 -34.91158879 100.88506543 -33.125 98.5625 C-30.72045686 95.66290387 -28.12190468 94.08126979 -25 92 C-23.65080468 90.34614767 -22.31866272 88.678298 -21 87 C-19.28281117 85.43966977 -17.51247413 83.958294 -15.73046875 82.47265625 C-13.34874306 80.44577005 -11.18158849 78.23899871 -9 76 C-8.21625 75.2575 -7.4325 74.515 -6.625 73.75 C1.76749199 64.95786553 9 54.59286527 9 42 C9.66 42 10.32 42 11 42 C10.67 41.34 10.34 40.68 10 40 C10.00584589 38.39530295 10.05458293 36.79066195 10.125 35.1875 C10.16934904 23.83414595 6.70476452 14.62646647 1.42578125 4.80078125 C0 2 0 2 0 0 Z " fill="#DBC824" transform="translate(295,417)"/>
<path d="M0 0 C5.13648464 4.03580936 7.48118438 10.36829067 8.38574219 16.70019531 C8.53425581 19.4581631 8.5555057 22.17621197 8.5 24.9375 C8.48791504 25.90316895 8.47583008 26.86883789 8.46337891 27.86376953 C7.99413732 44.69674514 -0.51613838 53.82413485 -11.97265625 65.30859375 C-12.94198673 66.28437325 -13.91117636 67.26029268 -14.88023376 68.23634338 C-16.9048305 70.2728453 -18.9334461 72.30524375 -20.96459961 74.33520508 C-23.53399019 76.9043933 -26.08937682 79.48702734 -28.64135075 82.07350063 C-30.63786852 84.09254287 -32.64370374 86.10213898 -34.65203667 88.10942268 C-36.04754248 89.50835686 -37.43399267 90.91630652 -38.82008362 92.3245697 C-48.65598073 102.09173663 -61.63458815 113.36140421 -76.19824219 114.11352539 C-76.97329102 114.10828857 -77.74833984 114.10305176 -78.546875 114.09765625 C-79.39121094 114.09443359 -80.23554688 114.09121094 -81.10546875 114.08789062 C-82.41451172 114.07532227 -82.41451172 114.07532227 -83.75 114.0625 C-84.63816406 114.05798828 -85.52632812 114.05347656 -86.44140625 114.04882812 C-88.62767329 114.037074 -90.81380179 114.02064249 -93 114 C-93 113.67 -93 113.34 -93 113 C-91.96101562 112.96261719 -90.92203125 112.92523437 -89.8515625 112.88671875 C-79.73161615 112.44212622 -70.71682606 111.65415744 -62 106 C-60.80375 105.505 -59.6075 105.01 -58.375 104.5 C-55.40937845 103.18194598 -54.09592881 102.3165529 -52 100 C-51.34 100 -50.68 100 -50 100 C-50 99.34 -50 98.68 -50 98 C-48.390625 96.4140625 -48.390625 96.4140625 -46.25 94.625 C-44.02437055 92.73575743 -41.87788079 90.87788079 -39.8125 88.8125 C-38 87 -38 87 -35.5 85.0625 C-32.88450594 83.05003135 -32.88450594 83.05003135 -30.8125 80.25 C-30.214375 79.5075 -29.61625 78.765 -29 78 C-28.34 78 -27.68 78 -27 78 C-26.505 76.515 -26.505 76.515 -26 75 C-25.34 75 -24.68 75 -24 75 C-23.505 73.515 -23.505 73.515 -23 72 C-22.34 72 -21.68 72 -21 72 C-20.505 70.515 -20.505 70.515 -20 69 C-18.2578125 67.31640625 -18.2578125 67.31640625 -16.125 65.5625 C-13.89360158 63.72221385 -12.0837276 62.1139737 -10.3671875 59.77734375 C-9.69042969 58.89755859 -9.69042969 58.89755859 -9 58 C-8.34 58 -7.68 58 -7 58 C-6.67 57.01 -6.34 56.02 -6 55 C-5.34 55 -4.68 55 -4 55 C-3.67 53.02 -3.34 51.04 -3 49 C-2.01 49 -1.02 49 0 49 C2.86814725 43.23702506 4.44724926 38.41190857 5 32 C5.495 30.515 5.495 30.515 6 29 C5.61067144 26.85744207 5.61067144 26.85744207 5 25 C5.66 25 6.32 25 7 25 C5.58560755 16.77080755 4.17754868 9.34672353 0 2 C0 1.34 0 0.68 0 0 Z " fill="#E0CC32" transform="translate(236,494)"/>
<path d="M0 0 C0.99 0.33 1.98 0.66 3 1 C-3.95140656 7.97460474 -10.9055324 14.94648559 -17.86311626 21.91492844 C-21.09391719 25.15094183 -24.32378377 28.38787633 -27.55151367 31.62695312 C-30.6680677 34.75439418 -33.78707753 37.8793667 -36.90778542 41.00266266 C-38.09633484 42.19305585 -39.28400562 43.38432702 -40.47076988 44.57649994 C-42.13662352 46.24964118 -43.80560986 47.91959754 -45.4753418 49.58886719 C-45.9623053 50.07942596 -46.4492688 50.56998474 -46.95098877 51.07540894 C-49.82030366 53.93617218 -52.81658739 56.49768953 -56 59 C-60.60264519 64.10268565 -61.53532017 68.72211047 -61.37109375 75.484375 C-60.97994147 78.13597574 -60.5077162 79.78644214 -59 82 C-57.15151516 83.23492798 -57.15151516 83.23492798 -54.9375 84.0625 C-54.13957031 84.39507813 -53.34164062 84.72765625 -52.51953125 85.0703125 C-50.07646799 85.97178391 -47.62422131 86.70941261 -45.125 87.4375 C-42.08790855 88.42336215 -41.12891748 88.85545616 -38.9375 91.3125 C-37.87248195 94.36555173 -37.77594652 96.78856685 -38 100 C-40 97 -40 97 -40 93 C-40.66 93 -41.32 93 -42 93 C-42.66 92.34 -43.32 91.68 -44 91 C-45.35809587 90.51255065 -46.73695653 90.08166566 -48.125 89.6875 C-54.08169373 87.76598589 -59.26256707 85.46603384 -62.9375 80.25 C-64.26952519 76.17557002 -65.16438322 72.30684047 -65 68 C-63.625 65.625 -63.625 65.625 -62 64 C-61.67 63.01 -61.34 62.02 -61 61 C-60.34 61 -59.68 61 -59 61 C-58.773125 60.443125 -58.54625 59.88625 -58.3125 59.3125 C-56.10320882 55.41993935 -52.95048579 52.70154904 -49.375 50.0625 C-46.79703719 48.10487106 -46.79703719 48.10487106 -45.5625 44.9375 C-43.5832359 41.21648349 -41.72944622 40.82815991 -38 39 C-35.823315 36.80719141 -33.93520597 34.40534075 -32 32 C-29.75 29.5625 -29.75 29.5625 -28 28 C-27.34 28 -26.68 28 -26 28 C-25.505 26.515 -25.505 26.515 -25 25 C-23.1875 23.24609375 -23.1875 23.24609375 -21 21.4375 C-18.05040821 19.07789673 -18.05040821 19.07789673 -16 16 C-15.34 16 -14.68 16 -14 16 C-13.8453125 15.0409375 -13.8453125 15.0409375 -13.6875 14.0625 C-13.3471875 13.0415625 -13.3471875 13.0415625 -13 12 C-12.01 11.67 -11.02 11.34 -10 11 C-7.9853229 9.32110241 -6.87916325 7.78984913 -5.5625 5.5 C-3.93761204 2.90017926 -2.66467974 1.49888235 0 0 Z " fill="#0FC5B1" transform="translate(230,431)"/>
<path d="M0 0 C7.26 0 14.52 0 22 0 C22 8.25 22 16.5 22 25 C28.6 25 35.2 25 42 25 C42 30.94 42 36.88 42 43 C35.4 43 28.8 43 22 43 C22 42.67 22 42.34 22 42 C27.94 42 33.88 42 40 42 C40 37.05 40 32.1 40 27 C38.72382812 27.02320313 37.44765625 27.04640625 36.1328125 27.0703125 C34.4635475 27.08906829 32.7942762 27.10726869 31.125 27.125 C29.86236328 27.15013672 29.86236328 27.15013672 28.57421875 27.17578125 C27.36572266 27.18544922 27.36572266 27.18544922 26.1328125 27.1953125 C25.38918457 27.20578613 24.64555664 27.21625977 23.87939453 27.22705078 C22 27 22 27 20 25 C19.77294922 22.56982422 19.77294922 22.56982422 19.8046875 19.5546875 C19.81113281 18.47832031 19.81757812 17.40195312 19.82421875 16.29296875 C19.84097656 15.16503906 19.85773437 14.03710938 19.875 12.875 C19.88402344 11.73933594 19.89304687 10.60367187 19.90234375 9.43359375 C19.92596801 6.62230663 19.9618399 3.81112738 20 1 C13.73 1 7.46 1 1 1 C1 9.25 1 17.5 1 26 C-2.96 26 -6.92 26 -11 26 C-11 31.28 -11 36.56 -11 42 C-7.37 42 -3.74 42 0 42 C0 42.33 0 42.66 0 43 C-4.29 43 -8.58 43 -13 43 C-13 37.06 -13 31.12 -13 25 C-8.71 25 -4.42 25 0 25 C0 16.75 0 8.5 0 0 Z " fill="#0DC5A4" transform="translate(709,453)"/>
<path d="M0 0 C3.26172045 2.1744803 3.5126533 2.53813765 4.375 6.125 C5.3513386 11.20196074 4.33074415 14.48649545 2 19 C1.69578125 19.6084375 1.3915625 20.216875 1.078125 20.84375 C-2.4970733 27.52526813 -7.17473173 32.26696953 -13 37 C-16.47548927 40.3017148 -19.51894351 43.78314132 -22.47265625 47.546875 C-24 49 -24 49 -26.05859375 49.453125 C-26.69925781 49.63359375 -27.33992188 49.8140625 -28 50 C-28.30123779 50.60295898 -28.60247559 51.20591797 -28.9128418 51.82714844 C-30.10688847 54.21363292 -31.37157226 55.52175964 -33.3359375 57.3125 C-33.98820312 57.91320312 -34.64046875 58.51390625 -35.3125 59.1328125 C-36.3334375 60.05707031 -36.3334375 60.05707031 -37.375 61 C-38.7166777 62.22858609 -40.05783801 63.45773748 -41.3984375 64.6875 C-42.02878906 65.26145508 -42.65914062 65.83541016 -43.30859375 66.42675781 C-44.67159754 67.69454021 -45.98182144 69.01893496 -47.2734375 70.359375 C-49.58723291 72.55800412 -51.95925055 73.1707047 -55 74 C-52.22313097 71.13635381 -49.38603596 68.44263637 -46.35620117 65.84741211 C-41.83049852 61.90285866 -37.55676396 57.73584788 -33.30078125 53.50390625 C-32.50270554 52.71153061 -31.70462982 51.91915497 -30.88237 51.10276794 C-29.2078757 49.4376591 -27.53478334 47.77113933 -25.86303711 46.10327148 C-23.31616872 43.56615468 -20.75882226 41.03991295 -18.20117188 38.51367188 C-16.56705003 36.88607734 -14.93356464 35.2578435 -13.30078125 33.62890625 C-12.54235428 32.88282608 -11.78392731 32.13674591 -11.0025177 31.36805725 C-2.49206997 22.82510806 -2.49206997 22.82510806 1.1328125 11.66015625 C1.12894531 10.37431641 1.12894531 10.37431641 1.125 9.0625 C1.12757813 8.20785156 1.13015625 7.35320313 1.1328125 6.47265625 C1.00930254 4.17319148 0.64420687 2.20359652 0 0 Z " fill="#C3C63F" transform="translate(214,508)"/>
<path d="M0 0 C3.71681994 1.85840997 4.27016123 6.95104042 5.5859375 10.703125 C6.84573526 14.07342178 6.84573526 14.07342178 9.2265625 16.671875 C11 19 11 19 11.05078125 21.01953125 C9.56549031 23.81894577 7.52774844 25.55968993 5.1875 27.6875 C-0.76665218 33.50536258 -4.08228893 38.50452614 -4.4375 46.9375 C-4.05777832 54.82591165 -2.18239706 61.69559308 3.3046875 67.52734375 C5.99297301 69.86255951 8.81884149 71.40942075 12 73 C9 74 9 74 6 74 C6 73.34 6 72.68 6 72 C5.34 72 4.68 72 4 72 C4 71.34 4 70.68 4 70 C3.10861328 69.62875 3.10861328 69.62875 2.19921875 69.25 C-1.85711536 66.94444598 -3.97627925 63.11009539 -6 59 C-6.81259065 55.64478701 -6.98390703 52.44389471 -7 49 C-7.01417969 48.13117187 -7.02835937 47.26234375 -7.04296875 46.3671875 C-7.05960181 44.24480851 -7.03422852 42.12216814 -7 40 C-6.34 40 -5.68 40 -5 40 C-4.67 37.69 -4.34 35.38 -4 33 C-3.34 33 -2.68 33 -2 33 C-1.7525 32.21625 -1.505 31.4325 -1.25 30.625 C0.20140766 27.57704392 0.99550707 27.27463336 4 26 C5.91666667 24.91666667 5.91666667 24.91666667 7 23 C6.76522801 19.35458155 6.76522801 19.35458155 6 16 C5.34 16 4.68 16 4 16 C3.67 14.02 3.34 12.04 3 10 C2.34 10 1.68 10 1 10 C0.37542727 6.56484998 0 3.50935186 0 0 Z " fill="#14C6B7" transform="translate(130,508)"/>
<path d="M0 0 C7.59 0 15.18 0 23 0 C24.299375 3.17625 25.59875 6.3525 26.9375 9.625 C27.34605225 10.6145166 27.75460449 11.6040332 28.17553711 12.62353516 C29.9754193 17.07443103 31.49572472 21.18136953 32 26 C28.63528684 24.31764342 28.10108468 20.49819949 26.875 17.125 C26.59785156 16.39152344 26.32070313 15.65804688 26.03515625 14.90234375 C24.89446374 11.81741671 24 9.31479633 24 6 C23.34 6 22.68 6 22 6 C22 4.68 22 3.36 22 2 C14.08 2.495 14.08 2.495 6 3 C5.67 5.31 5.34 7.62 5 10 C5.66 10 6.32 10 7 10 C7.1953125 12.05078125 7.390625 14.1015625 7.5859375 16.15234375 C7.72257813 16.76207031 7.85921875 17.37179687 8 18 C8.66 18.33 9.32 18.66 10 19 C12.56370207 23.34714699 13.93357462 27.84628674 15.30078125 32.6640625 C15.9934511 35.13577897 15.9934511 35.13577897 17.25 37.9375 C18 40 18 40 17 43 C15.37791631 39.12822919 13.76077244 35.25443924 12.14770508 31.37890625 C11.60112701 30.06750235 11.05332346 28.75660838 10.50415039 27.44628906 C6.70810265 18.38587814 3.23440292 9.27715567 0 0 Z " fill="#50C892" transform="translate(819,478)"/>
<path d="M0 0 C3.44363641 3.07094848 5.2286863 6.06023884 7.125 10.25 C7.62257813 11.32765625 8.12015625 12.4053125 8.6328125 13.515625 C13.69871126 26.42642985 14.07019282 41.99772742 9.34765625 55.08203125 C3.49608355 67.75195822 3.49608355 67.75195822 -1 70 C0.16836965 66.70732191 1.67249554 63.81088107 3.4375 60.8125 C6.79393725 54.87418795 9 48.85438709 9 42 C9.66 42 10.32 42 11 42 C10.67 41.34 10.34 40.68 10 40 C10.00584589 38.39530295 10.05458293 36.79066195 10.125 35.1875 C10.16934904 23.83414595 6.70476452 14.62646647 1.42578125 4.80078125 C0 2 0 2 0 0 Z " fill="#C4C535" transform="translate(295,417)"/>
<path d="M0 0 C1.36196425 2.66277908 2.52056859 5.02752526 3 8 C2.67 8.99 2.34 9.98 2 11 C2.60648579 12.68949614 3.27840576 14.35636866 4 16 C4.75023554 18.55080083 5 20.30020872 5 23 C5.32041397 25.60280568 5.32041397 25.60280568 6 28 C6.66 28.33 7.32 28.66 8 29 C8.68346682 30.65984798 9.34588315 32.32836805 10 34 C12.18067529 38.74831589 12.18067529 38.74831589 16 42 C16 42.66 16 43.32 16 44 C16.66 44 17.32 44 18 44 C22.65909091 48.31818182 22.65909091 48.31818182 24 51 C13.96009536 47.4912444 8.44056518 38.18466267 4 29 C-0.15241201 19.28654063 -0.47849302 10.35405738 0 0 Z " fill="#17C4AD" transform="translate(98,549)"/>
<path d="M0 0 C0 0.33 0 0.66 0 1 C-1.25554687 0.97679687 -2.51109375 0.95359375 -3.8046875 0.9296875 C-20.6773914 0.66958908 -20.6773914 0.66958908 -36 7 C-37.63582031 7.63035156 -37.63582031 7.63035156 -39.3046875 8.2734375 C-43.41655347 9.99654137 -46.27061624 12.60803336 -49.4375 15.6875 C-49.97826172 16.19861328 -50.51902344 16.70972656 -51.07617188 17.23632812 C-52.39216133 18.48244204 -53.69725905 19.74004201 -55 21 C-55.33 20.01 -55.66 19.02 -56 18 C-40.29906694 2.96719175 -21.9797299 -5.46162985 0 0 Z " fill="#28C7A0" transform="translate(265,397)"/>
<path d="M0 0 C7.59 0 15.18 0 23 0 C19.59794832 9.81056764 16.14643666 19.47787333 12 29 C10.80130687 25.40392062 11.28070648 24.61414784 12.65234375 21.18359375 C13.01650391 20.25482422 13.38066406 19.32605469 13.75585938 18.36914062 C14.14580078 17.40169922 14.53574219 16.43425781 14.9375 15.4375 C15.69941044 13.52064018 16.45866234 11.60272083 17.21484375 9.68359375 C17.55636475 8.83337646 17.89788574 7.98315918 18.24975586 7.10717773 C19.11180554 5.05876888 19.11180554 5.05876888 19 3 C9.37971689 1.72452381 9.37971689 1.72452381 0.82421875 4.78125 C-0.39976616 6.83205657 -1.3071493 8.71766827 -2 11 C-3 8 -3 8 0 0 Z " fill="#71C064" transform="translate(885,477)"/>
<path d="M0 0 C1.17230937 3.51692812 0.54151588 4.64292704 -0.99365234 7.88745117 C-5.09015212 15.97130963 -9.22632216 22.22127124 -17.875 25.9375 C-25.1934995 28.06180782 -33.51991054 27.16622421 -41 27 C-41 20.4 -41 13.8 -41 7 C-40.67 7 -40.34 7 -40 7 C-40 12.94 -40 18.88 -40 25 C-31.41396569 25.20689239 -23.44821179 24.52612858 -15 23 C-15 22.34 -15 21.68 -15 21 C-13.68 20.67 -12.36 20.34 -11 20 C-11 19.34 -11 18.68 -11 18 C-10.01 17.34 -9.02 16.68 -8 16 C-7.67 15.01 -7.34 14.02 -7 13 C-6.34 13 -5.68 13 -5 13 C-4.89042969 12.39671875 -4.78085937 11.7934375 -4.66796875 11.171875 C-3.09314587 3.23374341 -3.09314587 3.23374341 0 0 Z " fill="#BCC32E" transform="translate(869,575)"/>
<path d="M0 0 C0.33 0.99 0.66 1.98 1 3 C1.66 3.33 2.32 3.66 3 4 C3.1094045 6.64698118 3.18795044 9.28931357 3.25 11.9375 C3.30027344 13.04061523 3.30027344 13.04061523 3.3515625 14.16601562 C3.49588536 22.42849932 0.84343535 28.35560273 -4.85546875 34.30859375 C-6.28682881 35.69804756 -7.73110284 37.07431226 -9.1875 38.4375 C-10.64116113 39.83011499 -12.09307645 41.22455535 -13.54296875 42.62109375 C-14.18258545 43.2236499 -14.82220215 43.82620605 -15.48120117 44.44702148 C-17.09866788 45.94262506 -17.09866788 45.94262506 -18 48 C-18.66 47.67 -19.32 47.34 -20 47 C-17.13903919 41.41481548 -12.65151774 37.62439694 -8.09375 33.43554688 C-2.80818093 28.36834348 -0.3615043 23.83883143 0.328125 16.515625 C0.30234375 15.43796875 0.2765625 14.3603125 0.25 13.25 C0.23453125 12.16203125 0.2190625 11.0740625 0.203125 9.953125 C0.09917134 7.09846977 0.09917134 7.09846977 -0.578125 4.796875 C-1 3 -1 3 0 0 Z " fill="#C9C83F" transform="translate(278,439)"/>
<path d="M0 0 C1.7074998 1.28062485 3.37373596 2.61767557 5 4 C5 4.66 5 5.32 5 6 C6.4540625 6.4021875 6.4540625 6.4021875 7.9375 6.8125 C10.058992 7.40156619 12.09877657 8.03836331 14.15234375 8.8359375 C19.68545711 10.95582979 24.22017294 11.62965049 30 10 C33.13638057 8.23222186 35.46729967 6.53270033 38 4 C37.70540991 7.53508103 37.25118587 8.76203444 34.625 11.25 C30.21456278 14.19029148 26.16821405 14.58805 21 14 C13.58633917 12.23724097 5.4826551 9.53803545 0 4 C0 2.68 0 1.36 0 0 Z " fill="#16C7B1" transform="translate(153,528)"/>
<path d="M0 0 C0.66 0 1.32 0 2 0 C-0.50997458 6.22037178 -6.90990193 9.5297824 -12.7421875 12.3046875 C-18.0309884 14.45473416 -22.79715942 16.13650568 -28.546875 16.09765625 C-29.39121094 16.09443359 -30.23554688 16.09121094 -31.10546875 16.08789062 C-31.97816406 16.07951172 -32.85085937 16.07113281 -33.75 16.0625 C-34.63816406 16.05798828 -35.52632812 16.05347656 -36.44140625 16.04882812 C-38.62767329 16.037074 -40.81380179 16.02064249 -43 16 C-43 15.67 -43 15.34 -43 15 C-41.96101562 14.96261719 -40.92203125 14.92523437 -39.8515625 14.88671875 C-29.73161615 14.44212622 -20.71682606 13.65415744 -12 8 C-10.80375 7.505 -9.6075 7.01 -8.375 6.5 C-5.40937845 5.18194598 -4.09592881 4.3165529 -2 2 C-1.34 2 -0.68 2 0 2 C0 1.34 0 0.68 0 0 Z " fill="#D0C72E" transform="translate(186,592)"/>
<path d="M0 0 C0.33 0.99 0.66 1.98 1 3 C-8.24 12.24 -17.48 21.48 -27 31 C-27.33 30.01 -27.66 29.02 -28 28 C-25.01499619 22.75677592 -19.79271614 19.17508109 -15.05078125 15.64453125 C-12.63082275 13.703955 -10.86693596 11.46435546 -9 9 C-8.34 9 -7.68 9 -7 9 C-6.67 8.01 -6.34 7.02 -6 6 C-5.34 6 -4.68 6 -4 6 C-3.67 5.01 -3.34 4.02 -3 3 C-2.34 3 -1.68 3 -1 3 C-0.67 2.01 -0.34 1.02 0 0 Z " fill="#E1CC2D" transform="translate(216,563)"/>
<path d="M0 0 C7.59 0 15.18 0 23 0 C24.299375 3.17625 25.59875 6.3525 26.9375 9.625 C27.34605225 10.6145166 27.75460449 11.6040332 28.17553711 12.62353516 C29.9754193 17.07443103 31.49572472 21.18136953 32 26 C28.63528684 24.31764342 28.10108468 20.49819949 26.875 17.125 C26.59785156 16.39152344 26.32070313 15.65804688 26.03515625 14.90234375 C24.89446374 11.81741671 24 9.31479633 24 6 C23.34 6 22.68 6 22 6 C22 4.35 22 2.7 22 1 C15.4 1 8.8 1 2 1 C1.67 1.66 1.34 2.32 1 3 C0.67 2.01 0.34 1.02 0 0 Z " fill="#48C27E" transform="translate(819,478)"/>
<path d="M0 0 C0.33 0.66 0.66 1.32 1 2 C0.33333333 3.66666667 -0.33333333 5.33333333 -1 7 C-1.3813074 9.32597511 -1.72460254 11.65912158 -2 14 C-1.34 14 -0.68 14 0 14 C0.3403125 14.9590625 0.3403125 14.9590625 0.6875 15.9375 C1.79391605 18.20241355 1.79391605 18.20241355 4.0625 18.5 C5.031875 18.665 6.00125 18.83 7 19 C10.04711002 20.23213677 13.02392319 21.6059771 16 23 C15.67 23.99 15.34 24.98 15 26 C13.989375 25.401875 12.97875 24.80375 11.9375 24.1875 C9.40441123 22.72610263 7.04703503 21.61235323 4.3125 20.5 C0.40547401 18.73078068 -2.07123711 16.85752579 -4 13 C-4.54903034 7.29008444 -3.51369551 4.50192237 0 0 Z " fill="#BEC64C" transform="translate(198,482)"/>
<path d="M0 0 C3.20573748 3.93431418 5.03892198 7.0149791 4.9375 12.1875 C3.38845376 18.48695473 1.00252689 23.89734677 -3.5 28.625 C-8.91389874 30.75188879 -14.25552106 30.30682677 -20 30 C-20 29.67 -20 29.34 -20 29 C-19.27554688 28.97421875 -18.55109375 28.9484375 -17.8046875 28.921875 C-9.64750637 28.45363905 -9.64750637 28.45363905 -3 24 C0.25654699 19.29703863 2.48738726 15.00031872 1.875 9.1875 C1.61400928 7.785607 1.32523443 6.38839573 1 5 C0.814375 3.989375 0.62875 2.97875 0.4375 1.9375 C0.293125 1.298125 0.14875 0.65875 0 0 Z " fill="#A7C44D" transform="translate(850,554)"/>
<path d="M0 0 C3.26172045 2.1744803 3.5126533 2.53813765 4.375 6.125 C5.35277145 11.20941155 4.3212815 14.47766273 2 19 C1.56107422 19.93005859 1.56107422 19.93005859 1.11328125 20.87890625 C-1.21697165 25.43125686 -3.99465152 27.99598864 -8 31 C-8.66 30.67 -9.32 30.34 -10 30 C-9.45730469 29.43152344 -8.91460937 28.86304688 -8.35546875 28.27734375 C-1.86921837 21.27686811 1.38619175 16.01931332 1.203125 6.33203125 C1.01043928 4.11985094 0.60769242 2.13182423 0 0 Z " fill="#CCC838" transform="translate(214,508)"/>
<path d="M0 0 C0.66 0 1.32 0 2 0 C2 2.31 2 4.62 2 7 C0.02 7 -1.96 7 -4 7 C-4.33 7.99 -4.66 8.98 -5 10 C-9.33333333 14.66666667 -9.33333333 14.66666667 -12 16 C-12.33 15.01 -12.66 14.02 -13 13 C-11.21427748 11.16052663 -9.42197551 9.32842259 -7.625 7.5 C-7.11710937 6.97535156 -6.60921875 6.45070313 -6.0859375 5.91015625 C-4.76167396 4.56846819 -3.38394135 3.28004185 -2 2 C-1.34 2 -0.68 2 0 2 C0 1.34 0 0.68 0 0 Z " fill="#1DC9BD" transform="translate(129,501)"/>
<path d="M0 0 C1.33097865 3.99293596 -0.02444764 6.35355207 -1.52734375 10.07421875 C-1.79511124 10.7580513 -2.06287872 11.44188385 -2.33876038 12.1464386 C-3.19625079 14.33036217 -4.06667017 16.50886567 -4.9375 18.6875 C-5.52104094 20.16697932 -6.1037339 21.64679341 -6.68554688 23.12695312 C-8.11388616 26.75526028 -9.55384215 30.37876008 -11 34 C-12.31538327 29.84228506 -11.34433068 27.1120703 -10 23 C-9.34 23 -8.68 23 -8 23 C-7.86207031 22.27425781 -7.72414063 21.54851563 -7.58203125 20.80078125 C-6.03338584 13.34857481 -3.59761944 6.6990155 0 0 Z " fill="#ABC445" transform="translate(882,541)"/>
<path d="M0 0 C0.33 0 0.66 0 1 0 C1.14695312 0.64066406 1.29390625 1.28132812 1.4453125 1.94140625 C3.2819468 9.02405923 5.77336218 14.13980533 11.9453125 18.31640625 C13.59477772 19.2746988 15.293762 20.146881 17 21 C14 22 14 22 11 22 C11 21.34 11 20.68 11 20 C10.34 20 9.68 20 9 20 C9 19.34 9 18.68 9 18 C8.11248047 17.63455078 8.11248047 17.63455078 7.20703125 17.26171875 C3.19519679 14.96822755 0.93731124 11.11594845 -1 7 C-1.20269203 4.28096061 -0.79092098 2.65523472 0 0 Z " fill="#3FC493" transform="translate(125,560)"/>
<path d="M0 0 C4.6649987 3.66535612 6.73035582 8.33289031 8 14 C8.46841189 20.32489124 8.23400017 26.66899539 8 33 C6.62420173 30.33788628 5.62936439 27.93703384 5 25 C5.66 25 6.32 25 7 25 C5.58560755 16.77080755 4.17754868 9.34672353 0 2 C0 1.34 0 0.68 0 0 Z " fill="#D5C72C" transform="translate(236,494)"/>
<path d="M0 0 C0.33 0.66 0.66 1.32 1 2 C0.08154297 2.94359375 0.08154297 2.94359375 -0.85546875 3.90625 C-3.20683823 6.52150851 -5.24580354 8.94752448 -7 12 C-6.8085936 14.60573718 -6.15273637 16.07060241 -4.83984375 18.30859375 C-4 20 -4 20 -5 23 C-5.2475 22.46375 -5.495 21.9275 -5.75 21.375 C-7.29696975 18.43575748 -9.13014369 15.74245592 -11 13 C-9.46356148 9.31930113 -7.21849055 7.01224796 -4.375 4.25 C-3.55773437 3.45078125 -2.74046875 2.6515625 -1.8984375 1.828125 C-0.95871094 0.92320312 -0.95871094 0.92320312 0 0 Z " fill="#CDC733" transform="translate(258,484)"/>
<path d="M0 0 C7.84267164 7.0448241 10.8169983 17.82210603 12 28 C11.34 28.33 10.68 28.66 10 29 C9.86464844 28.22398437 9.72929687 27.44796875 9.58984375 26.6484375 C7.97355883 18.53797784 5.30271137 12.01684787 1.42578125 4.80078125 C0 2 0 2 0 0 Z " fill="#7DC060" transform="translate(295,417)"/>
<path d="M0 0 C0.99 0.33 1.98 0.66 3 1 C-2.28 6.28 -7.56 11.56 -13 17 C-13.99 16.67 -14.98 16.34 -16 16 C-15.34 16 -14.68 16 -14 16 C-13.896875 15.360625 -13.79375 14.72125 -13.6875 14.0625 C-13.460625 13.381875 -13.23375 12.70125 -13 12 C-12.01 11.67 -11.02 11.34 -10 11 C-7.9853229 9.32110241 -6.87916325 7.78984913 -5.5625 5.5 C-3.93761204 2.90017926 -2.66467974 1.49888235 0 0 Z " fill="#14C6A8" transform="translate(230,431)"/>
<path d="M0 0 C0.33 0.99 0.66 1.98 1 3 C-1.44978026 6.86311502 -3.54966162 8.8874154 -8 10 C-10.69165159 10.14535921 -13.29996307 10.09152668 -16 10 C-16 9.01 -16 8.02 -16 7 C-15.12988281 6.96132813 -15.12988281 6.96132813 -14.2421875 6.921875 C-8.63831229 6.51499297 -5.35315826 5.59135557 -1 2 C-0.67 1.34 -0.34 0.68 0 0 Z " fill="#38CEB3" transform="translate(190,532)"/>
<path d="M0 0 C0.99 0.495 0.99 0.495 2 1 C2 1.99 2 2.98 2 4 C2.66 4.33 3.32 4.66 4 5 C6.56370207 9.34714699 7.93357462 13.84628674 9.30078125 18.6640625 C9.9934511 21.13577897 9.9934511 21.13577897 11.25 23.9375 C12 26 12 26 11 29 C9.42897511 25.19322741 7.8625157 21.38461236 6.30029297 17.57421875 C5.76802214 16.27780317 5.23449895 14.98190106 4.69970703 13.68652344 C3.93194036 11.82622051 3.16902341 9.96391837 2.40625 8.1015625 C1.94541016 6.98088379 1.48457031 5.86020508 1.00976562 4.70556641 C0 2 0 2 0 0 Z " fill="#5EC277" transform="translate(825,492)"/>
<path d="M0 0 C0.33 0.99 0.66 1.98 1 3 C-2.63 6.96 -6.26 10.92 -10 15 C-10.66 14.01 -11.32 13.02 -12 12 C-8.04 8.04 -4.08 4.08 0 0 Z " fill="#22CDBF" transform="translate(176,447)"/>
<path d="M0 0 C2.7064107 2.52598332 4.39884942 4.69095547 6 8 C6.53625 8.53625 7.0725 9.0725 7.625 9.625 C8.07875 10.07875 8.5325 10.5325 9 11 C9 11.66 9 12.32 9 13 C9.66 13 10.32 13 11 13 C15.65909091 17.31818182 15.65909091 17.31818182 17 20 C8.60633452 17.10010515 3.75206531 10.35928508 -0.1875 2.6875 C-0.455625 2.130625 -0.72375 1.57375 -1 1 C-0.67 0.67 -0.34 0.34 0 0 Z " fill="#41C28B" transform="translate(105,580)"/>
<path d="M0 0 C0 3 0 3 -1.46875 4.80932617 C-2.1390625 5.46392822 -2.809375 6.11853027 -3.5 6.79296875 C-4.221875 7.50517578 -4.94375 8.21738281 -5.6875 8.95117188 C-6.450625 9.68916016 -7.21375 10.42714844 -8 11.1875 C-8.763125 11.93708984 -9.52625 12.68667969 -10.3125 13.45898438 C-12.20180839 15.31286823 -14.09775206 17.15941069 -16 19 C-16 14.89253434 -14.36039564 13.80245139 -11.625 10.8125 C-10.81289062 9.91144531 -10.00078125 9.01039063 -9.1640625 8.08203125 C-7 6 -7 6 -5 6 C-4.67 5.01 -4.34 4.02 -4 3 C-3.34 3 -2.68 3 -2 3 C-2 2.34 -2 1.68 -2 1 C-1.34 0.67 -0.68 0.34 0 0 Z " fill="#E0C820" transform="translate(234,546)"/>
<path d="M0 0 C0.33 0.99 0.66 1.98 1 3 C1.66 3.33 2.32 3.66 3 4 C3.05392397 6.77109307 3.09363455 9.54113818 3.125 12.3125 C3.14175781 13.09818359 3.15851563 13.88386719 3.17578125 14.69335938 C3.18222656 15.45068359 3.18867188 16.20800781 3.1953125 16.98828125 C3.20578613 17.68477783 3.21625977 18.38127441 3.22705078 19.09887695 C3 21 3 21 1 24 C-0.43706736 19.4193478 -0.02461704 14.84162855 0.0625 10.09375 C0.11903368 7.11850228 0.11903368 7.11850228 -0.5625 4.78125 C-1 3 -1 3 0 0 Z " fill="#9FC55A" transform="translate(278,439)"/>
<path d="M0 0 C6.6 0 13.2 0 20 0 C20 0.66 20 1.32 20 2 C18.08574219 1.98259766 18.08574219 1.98259766 16.1328125 1.96484375 C14.46354313 1.95546583 12.79427217 1.94636563 11.125 1.9375 C10.28324219 1.92912109 9.44148437 1.92074219 8.57421875 1.91210938 C7.76855469 1.90888672 6.96289062 1.90566406 6.1328125 1.90234375 C5.38918457 1.89710693 4.64555664 1.89187012 3.87939453 1.88647461 C1.90867432 1.88213364 1.90867432 1.88213364 0 3 C0 2.01 0 1.02 0 0 Z M-1 3 C-0.67 3.66 -0.34 4.32 0 5 C-1.4375 7.625 -1.4375 7.625 -3 10 C-4 7 -4 7 -3 4 C-2.34 3.67 -1.68 3.34 -1 3 Z " fill="#74C77B" transform="translate(886,478)"/>
<path d="M0 0 C2.07735833 6.87471102 -1.80379172 13.02650393 -5 19 C-6.4216868 14.73493961 -4.65386682 11.79962257 -3.0625 7.8125 C-2.77181641 7.06291016 -2.48113281 6.31332031 -2.18164062 5.54101562 C-1.46274964 3.69075523 -0.73245347 1.84493352 0 0 Z " fill="#7FC36A" transform="translate(879,495)"/>
<path d="M0 0 C0.66 0.33 1.32 0.66 2 1 C1.690625 2.0725 1.38125 3.145 1.0625 4.25 C-0.33429718 9.75793783 -0.64188798 15.34559961 -1 21 C-1.66 21 -2.32 21 -3 21 C-3 16.38 -3 11.76 -3 7 C-2.34 7 -1.68 7 -1 7 C-0.67 4.69 -0.34 2.38 0 0 Z " fill="#1CC4A4" transform="translate(126,541)"/>
<path d="M0 0 C0.66 0.33 1.32 0.66 2 1 C1.37351562 1.58007812 0.74703125 2.16015625 0.1015625 2.7578125 C-0.71570313 3.53898437 -1.53296875 4.32015625 -2.375 5.125 C-3.18710937 5.89070313 -3.99921875 6.65640625 -4.8359375 7.4453125 C-7.19015721 10.22448161 -8.07814775 12.50506564 -9 16 C-10.1854683 13.19798403 -10.01522667 12.04377669 -9 9.125 C-6.53674635 5.27616617 -3.58859503 2.77255835 0 0 Z " fill="#18C6A0" transform="translate(783,443)"/>
<path d="M0 0 C0 3 0 3 -1.86328125 5.15625 C-2.67152344 5.9296875 -3.47976562 6.703125 -4.3125 7.5 C-5.51326172 8.66015625 -5.51326172 8.66015625 -6.73828125 9.84375 C-7.85783203 10.91109375 -7.85783203 10.91109375 -9 12 C-10.0032733 12.99671595 -11.00484253 13.99518081 -12 15 C-10.64059701 8.45014925 -10.64059701 8.45014925 -7.6875 6.375 C-6.800625 5.92125 -5.91375 5.4675 -5 5 C-3.2958946 3.37163262 -1.61974559 1.71230248 0 0 Z " fill="#0AC3AE" transform="translate(139,529)"/>
<path d="M0 0 C0.33 0.66 0.66 1.32 1 2 C-4.80885955 7.96172428 -4.80885955 7.96172428 -9.0390625 8.09765625 C-10.81410156 8.08025391 -10.81410156 8.08025391 -12.625 8.0625 C-13.81351563 8.05347656 -15.00203125 8.04445313 -16.2265625 8.03515625 C-17.14179687 8.02355469 -18.05703125 8.01195312 -19 8 C-19 7.67 -19 7.34 -19 7 C-18.27554688 6.97421875 -17.55109375 6.9484375 -16.8046875 6.921875 C-9.26994127 6.47983655 -5.38537748 5.38537748 0 0 Z " fill="#ABC23C" transform="translate(849,576)"/>
<path d="M0 0 C0 0.33 0 0.66 0 1 C-1.16015625 1.03867187 -1.16015625 1.03867187 -2.34375 1.078125 C-9.33416848 1.45879135 -13.90975486 2.61653048 -20 6 C-20.66 5.67 -21.32 5.34 -22 5 C-19.88832732 1.83249097 -18.92765034 1.26049615 -15.3515625 0.33984375 C-10.27376741 -0.39399042 -5.11604857 -0.13847951 0 0 Z " fill="#1FC294" transform="translate(257,423)"/>
<path d="M0 0 C0.99 0.33 1.98 0.66 3 1 C2.06725891 2.12894876 1.12859878 3.25300876 0.1875 4.375 C-0.33457031 5.00148438 -0.85664063 5.62796875 -1.39453125 6.2734375 C-3 8 -3 8 -6 10 C-5.49477778 5.62140745 -2.82172778 3.18348776 0 0 Z " fill="#E1CF41" transform="translate(194,584)"/>
<path d="M0 0 C0.75 1.625 0.75 1.625 1 4 C-2.01157407 9.68852881 -2.01157407 9.68852881 -5.14453125 10.67578125 C-5.75683594 10.78277344 -6.36914062 10.88976562 -7 11 C-6.57847656 10.37351562 -6.15695312 9.74703125 -5.72265625 9.1015625 C-4.90087891 7.87566406 -4.90087891 7.87566406 -4.0625 6.625 C-3.24458984 5.40683594 -3.24458984 5.40683594 -2.41015625 4.1640625 C-0.98906121 2.07280816 -0.98906121 2.07280816 0 0 Z " fill="#BCC33A" transform="translate(278,461)"/>
<path d="M0 0 C0.66 0.33 1.32 0.66 2 1 C2.33333333 2.66666667 2.66666667 4.33333333 3 6 C3.66 6.33 4.32 6.66 5 7 C4.01 8.485 4.01 8.485 3 10 C1.68 7.03 0.36 4.06 -1 1 C-0.67 0.67 -0.34 0.34 0 0 Z " fill="#23C6A6" transform="translate(101,571)"/>
<path d="M0 0 C0.33 0.99 0.66 1.98 1 3 C-0.5625 5.625 -0.5625 5.625 -3 8 C-6.25 8.8125 -6.25 8.8125 -9 9 C-6 7 -6 7 -4 6 C-3.67 5.01 -3.34 4.02 -3 3 C-1.4375 1.3125 -1.4375 1.3125 0 0 Z " fill="#16C39E" transform="translate(190,532)"/>
<path d="M0 0 C0.33 0.66 0.66 1.32 1 2 C-0.98 4.97 -0.98 4.97 -3 8 C-3.66 7.01 -4.32 6.02 -5 5 C-3.35 3.35 -1.7 1.7 0 0 Z " fill="#25CDC2" transform="translate(121,509)"/>
<path d="M0 0 C2.12046792 3.53411321 2.53199289 6.94393835 3 11 C2.01 11.495 2.01 11.495 1 12 C0.63896464 10.18885568 0.28634496 8.37603177 -0.0625 6.5625 C-0.25972656 5.55316406 -0.45695312 4.54382813 -0.66015625 3.50390625 C-0.77230469 2.67761719 -0.88445312 1.85132813 -1 1 C-0.67 0.67 -0.34 0.34 0 0 Z " fill="#A8C659" transform="translate(304,434)"/>
<path d="M0 0 C0.33 0.66 0.66 1.32 1 2 C-2.56741255 4.48889248 -5.89041233 6.54955729 -10 8 C-6.88983545 4.71211176 -3.98381075 2.16264012 0 0 Z " fill="#14C5A1" transform="translate(226,402)"/>
<path d="M0 0 C0.33 0.66 0.66 1.32 1 2 C-1.84936103 5.00765886 -4.23511958 7.27845212 -8 9 C-7.04270084 7.87411986 -6.08412105 6.7493285 -5.125 5.625 C-4.59132812 4.99851562 -4.05765625 4.37203125 -3.5078125 3.7265625 C-2.38567993 2.44163349 -1.20628025 1.20628025 0 0 Z " fill="#08C3A7" transform="translate(208,416)"/>
<path d="M0 0 C4.40114397 0.50298788 6.71195019 2.08772731 10 5 C8.02 5 6.04 5 4 5 C4 4.34 4 3.68 4 3 C3.34 3 2.68 3 2 3 C2 2.34 2 1.68 2 1 C1.34 0.67 0.68 0.34 0 0 Z " fill="#65C37B" transform="translate(132,577)"/>
<path d="M0 0 C0.33 0 0.66 0 1 0 C1.33 2.64 1.66 5.28 2 8 C2.99 8.33 3.98 8.66 5 9 C3.02 9.99 3.02 9.99 1 11 C0 10 0 10 -0.09765625 7.71484375 C-0.08605469 6.79832031 -0.07445312 5.88179688 -0.0625 4.9375 C-0.05347656 4.01839844 -0.04445313 3.09929687 -0.03515625 2.15234375 C-0.02355469 1.44207031 -0.01195312 0.73179687 0 0 Z " fill="#19CBB3" transform="translate(657,479)"/>
<path d="M0 0 C0.99 0 1.98 0 3 0 C2.67 2.64 2.34 5.28 2 8 C1.34 7.67 0.68 7.34 0 7 C0 4.69 0 2.38 0 0 Z " fill="#C7CA48" transform="translate(304,459)"/>
<path d="M0 0 C2.83022097 3.99560608 1.76210446 7.42737323 1 12 C-1.83022097 8.00439392 -0.76210446 4.57262677 0 0 Z " fill="#B9C855" transform="translate(279,451)"/>
</svg>
